<?xml version="1.0" encoding="utf-8"?>
<!-- Generated by IcoMoon.io -->
<!DOCTYPE svg PUBLIC "-//W3C//DTD SVG 1.1//EN" "http://www.w3.org/Graphics/SVG/1.1/DTD/svg11.dtd">
<svg version="1.1" xmlns="http://www.w3.org/2000/svg" xmlns:xlink="http://www.w3.org/1999/xlink" width="512" height="512" viewBox="0 0 512 512">
<g>
</g>
	<path d="M34.069 246.016c-5.181 0-9.36 4.803-9.605 10.803 4.762-3.215 10.404-5.519 16.527-7.383-1.741-2.078-4.209-3.42-6.922-3.42z" fill="#000000" />
	<path d="M295.024 314.818c-15.237 0-27.618 11.919-27.618 26.542 0 14.643 12.38 26.542 27.618 26.542 15.329 0 27.791-11.899 27.791-26.542-0.010-14.623-12.462-26.542-27.791-26.542zM295.076 352.563c-6.41 0-11.591-5.058-11.591-11.202 0-6.236 5.182-11.223 11.591-11.223 6.451 0 11.663 4.976 11.663 11.223 0 6.144-5.212 11.202-11.663 11.202z" fill="#000000" />
	<path d="M89.323 317.317c-15.207 0-27.597 11.919-27.597 26.542 0 14.643 12.39 26.542 27.597 26.542 7.495 0 14.51-2.775 19.753-7.865 5.202-5.017 8.069-11.623 8.069-18.678 0-7.076-2.857-13.721-8.049-18.698-5.233-5.058-12.247-7.844-19.773-7.844zM89.385 355.062c-6.4 0-11.582-5.038-11.582-11.202 0-6.195 5.181-11.182 11.582-11.182 6.462 0 11.653 4.976 11.653 11.182 0 6.164-5.192 11.202-11.653 11.202z" fill="#000000" />
	<path d="M89.323 306.841c-21.023 0-38.103 16.599-38.103 37.017 0 20.439 17.080 37.058 38.103 37.058 10.219 0 19.845-3.84 27.054-10.844 7.26-6.983 11.274-16.302 11.274-26.224 0-9.984-4.014-19.303-11.274-26.296-7.219-6.871-16.825-10.711-27.054-10.711zM109.066 362.537c-5.243 5.079-12.247 7.865-19.753 7.865-15.207 0-27.597-11.899-27.597-26.542 0-14.623 12.39-26.542 27.597-26.542 7.526 0 14.541 2.775 19.773 7.844 5.192 4.976 8.049 11.623 8.049 18.698 0 7.065-2.867 13.66-8.069 18.678z" fill="#000000" />
	<path d="M89.385 332.677c-6.4 0-11.582 4.976-11.582 11.182 0 6.164 5.181 11.202 11.582 11.202 6.462 0 11.653-5.038 11.653-11.202 0-6.195-5.192-11.182-11.653-11.182z" fill="#000000" />
	<path d="M407.030 265.718h58.194v8.663h-58.194v-8.663z" fill="#000000" />
	<path d="M406.354 319.038h58.214v8.663h-58.214v-8.663z" fill="#000000" />
	<path d="M406.354 290.601h98.192v10.005h-98.192v-10.005z" fill="#000000" />
	<path d="M295.024 304.322c-21.022 0-38.134 16.62-38.134 37.038 0 20.398 17.111 37.017 38.134 37.017 21.105 0 38.288-16.62 38.288-37.017 0-20.418-17.193-37.038-38.288-37.038zM295.024 367.902c-15.237 0-27.618-11.899-27.618-26.542 0-14.623 12.38-26.542 27.618-26.542 15.329 0 27.791 11.919 27.791 26.542-0.010 14.643-12.462 26.542-27.791 26.542z" fill="#000000" />
	<path d="M295.076 330.137c-6.41 0-11.591 4.976-11.591 11.223 0 6.144 5.182 11.202 11.591 11.202 6.451 0 11.663-5.058 11.663-11.202 0-6.236-5.212-11.223-11.663-11.223z" fill="#000000" />
	<path d="M199.844 157.276v84.859c4.638 0 9.278 0 13.916 0v-85.637c-4.813 0.020-9.421 0.317-13.916 0.778z" fill="#000000" />
	<path d="M213.76 151.603h-13.916v5.683c4.495-0.461 9.113-0.758 13.916-0.778v-4.905z" fill="#000000" />
	<path d="M199.844 251.679h13.916v-9.543c-4.638 0-9.278 0-13.916 0v9.543z" fill="#000000" />
	<path d="M24.474 256.819c0.235-6 4.424-10.803 9.605-10.803 2.713 0 5.181 1.341 6.932 3.42 3.451-1.065 7.106-1.884 10.885-2.601-3.502-6.799-10.107-11.479-17.808-11.479-11.223 0-20.347 9.84-20.347 21.945 0 2.918 0.563 5.745 1.526 8.284 2.581-3.389 5.622-6.37 9.206-8.765z" fill="#000000" />
	<path d="M34.069 279.245c11.243 0 20.347-9.841 20.347-21.945 0-3.82-0.993-7.342-2.539-10.455-3.769 0.717-7.434 1.536-10.885 2.601 1.71 2.018 2.775 4.782 2.775 7.864 0 6.195-4.331 11.284-9.697 11.284-5.335 0-9.687-5.079-9.687-11.284 0-0.185 0.082-0.317 0.092-0.481-3.584 2.396-6.615 5.376-9.216 8.755 3.051 8.018 10.312 13.66 18.811 13.66z" fill="#000000" />
	<path d="M392.1 255.345c-2.826 2.683-6.738 4.321-11.018 4.321-8.673 0-15.678-6.636-15.678-14.838 0-6.758 4.803-12.421 11.377-14.183-8.55-7.998-19.968-12.882-34.591-12.697 13.302-38.421-5.591-65.536-56.914-81.101-32.87-6.636-65.546-8.663-98.192 0-57.314 9.779-95.744 43.776-111.063 106.885-8.377 0.696-16.528 1.659-24.146 3.123 1.546 3.123 2.539 6.636 2.539 10.455 0 12.103-9.114 21.945-20.347 21.945-8.499 0-15.759-5.642-18.821-13.66-0.614 0.798-1.331 1.495-1.905 2.355-2.591 5.745-4.434 11.223-5.888 16.579h15.124v37.12h-14.818c4.505 12.442 13.742 23.081 28.263 31.601h6.021c-0.236-1.557-0.236-3.338-0.236-4.905 0-29.543 21.791-53.524 48.681-53.524 27.085 0 48.855 23.982 48.855 53.524 0 1.557 0 3.338-0.215 4.905h107.059c0-1.557-0.205-3.338-0.205-4.905 0-29.543 21.975-53.524 48.855-53.524 26.88 0 48.661 23.982 48.661 53.524 0 1.557 0 3.338-0.215 4.905h10.219c35.267 1.014 52.429-57.529 38.594-97.904zM285.276 242.135c-23.849 0-47.678 0-71.516 0v9.543h-13.916v-9.543c-30.382 0-60.774 0-91.166 0 13.855-51.722 44.217-80.077 91.166-84.859v-5.683h13.916v4.905c3.83 0 7.742 0.102 11.756 0.358 45.578 2.662 66.437 34.007 59.761 85.278z" fill="#000000" />
</svg>
